<svg width="48" height="24" viewBox="0 0 48 24" fill="none" xmlns="http://www.w3.org/2000/svg">
<path d="M4.5 11.9005H4V12.9005H4.5V11.9005ZM42 12.4005L42.2864 12.8103L42.8908 12.3879L42.2747 11.9827L42 12.4005ZM37.0685 6.82597L36.894 6.35741L35.9569 6.70646L36.1314 7.17501L37.0685 6.82597ZM36.161 17.5611L35.9216 18.0001L36.7996 18.4788L37.0389 18.0399L36.161 17.5611ZM4.5 12.9005H42V11.9005H4.5V12.9005ZM36.1314 7.17501C36.3907 7.87107 36.8884 8.56865 37.4539 9.20833C38.0244 9.85375 38.6905 10.4695 39.3193 11.0006C39.9493 11.5327 40.5492 11.986 40.9912 12.306C41.2125 12.4662 41.3948 12.5935 41.5223 12.6811C41.5861 12.7249 41.6362 12.7587 41.6707 12.7819C41.6879 12.7934 41.7012 12.8023 41.7104 12.8084C41.715 12.8115 41.7186 12.8138 41.721 12.8155C41.7223 12.8163 41.7232 12.8169 41.7239 12.8174C41.7243 12.8176 41.7246 12.8178 41.7248 12.818C41.7249 12.818 41.725 12.8181 41.7251 12.8181C41.7252 12.8182 41.7252 12.8182 42 12.4005C42.2747 11.9827 42.2748 11.9828 42.2748 11.9828C42.2748 11.9828 42.2748 11.9828 42.2747 11.9828C42.2747 11.9827 42.2746 11.9826 42.2744 11.9825C42.274 11.9823 42.2733 11.9818 42.2724 11.9812C42.2706 11.98 42.2677 11.9781 42.2637 11.9755C42.2559 11.9702 42.2439 11.9623 42.228 11.9516C42.1963 11.9303 42.1491 11.8984 42.0884 11.8567C41.9669 11.7733 41.7915 11.6508 41.5777 11.4961C41.1497 11.1862 40.5706 10.7485 39.9646 10.2367C39.3575 9.72387 38.7305 9.14262 38.2031 8.546C37.6706 7.94364 37.2653 7.35411 37.0685 6.82597L36.1314 7.17501ZM42 12.4005C41.7135 11.9907 41.7134 11.9907 41.7134 11.9908C41.7133 11.9908 41.7132 11.9909 41.7131 11.991C41.7129 11.9911 41.7127 11.9913 41.7124 11.9915C41.7117 11.9919 41.7109 11.9925 41.7097 11.9933C41.7075 11.9949 41.7044 11.9971 41.7003 12C41.6921 12.0057 41.6803 12.0141 41.6649 12.0251C41.6342 12.0469 41.5896 12.079 41.5325 12.1205C41.4185 12.2035 41.2548 12.3244 41.0543 12.4774C40.6535 12.7834 40.104 13.2191 39.5084 13.7388C38.3304 14.7666 36.9223 16.1652 36.161 17.5611L37.0389 18.0399C37.7101 16.8092 39.002 15.5077 40.1659 14.4923C40.7412 13.9902 41.2731 13.5684 41.6611 13.2723C41.8549 13.1243 42.0123 13.008 42.1209 12.9291C42.1751 12.8896 42.2171 12.8595 42.2452 12.8395C42.2593 12.8295 42.2699 12.822 42.2768 12.8171C42.2803 12.8146 42.2828 12.8128 42.2844 12.8117C42.2853 12.8111 42.2858 12.8107 42.2862 12.8105C42.2863 12.8104 42.2864 12.8103 42.2865 12.8103C42.2865 12.8103 42.2865 12.8103 42.2865 12.8102C42.2865 12.8103 42.2864 12.8103 42 12.4005Z" fill="#E58411"/>
</svg>
